<svg width="25" height="24" viewBox="0 0 25 24" fill="none" xmlns="http://www.w3.org/2000/svg">
<path d="M18.3758 0.535065C20.1515 0.535065 21.6552 1.21564 22.8869 2.57679C24.1186 3.93794 24.7341 5.58055 24.7332 7.50463C24.7332 8.06936 24.6716 8.63228 24.5485 9.19339C24.4254 9.75451 24.2286 10.2971 23.958 10.8211H16.9355L14.5055 7.04714H13.2362L10.9597 14.0058L8.79032 10.8211H1.0714C0.801704 10.2971 0.604862 9.75858 0.480874 9.20561C0.358696 8.65355 0.297607 8.09832 0.297607 7.53992C0.297607 5.59141 0.907591 3.93704 2.12756 2.57679C3.34753 1.21654 4.84533 0.53597 6.62098 0.535065C7.54953 0.535065 8.44279 0.724214 9.30075 1.10251C10.1578 1.47991 10.9248 2.02699 11.6018 2.74377L12.5154 3.71033L13.3774 2.79671C14.0661 2.06183 14.8435 1.50117 15.7096 1.11473C16.5758 0.728286 17.4645 0.535065 18.3758 0.535065ZM12.4814 23.0755L2.73573 14.2432C2.56559 14.0731 2.40178 13.898 2.24431 13.7179C2.08774 13.5396 1.94429 13.3536 1.81397 13.1599H8.06268L10.5605 16.9162H11.823L14.0725 9.92358L16.2337 13.1599H23.21C23.0797 13.3482 22.9362 13.5319 22.7797 13.7111C22.6231 13.8903 22.462 14.065 22.2964 14.2351L12.4814 23.0755Z" fill="white"/>
</svg>
