<svg width="161" height="105" viewBox="0 0 161 105" fill="none" xmlns="http://www.w3.org/2000/svg">
<path d="M112.545 35.7309C109.926 45.7507 102.228 53.6316 92.4442 56.3083C90.7632 56.7675 89.1104 55.4767 89.1104 53.6978V35.0235C89.1104 33.53 90.2944 32.322 91.7492 32.322H109.991C111.732 32.322 112.989 34.014 112.541 35.735L112.545 35.7309Z" fill="#00929D"/>
<path d="M81.068 3.29289V53.1022C81.068 55.1955 79.108 56.7179 77.1441 56.1346C65.2754 52.6016 56.676 41.3573 56.676 28.1975C56.676 15.0378 65.2754 3.80588 77.1441 0.264617C79.108 -0.322835 81.068 1.19958 81.068 3.29703V3.29289Z" fill="#00929D"/>
<path d="M118.83 73.1851C120.14 72.6015 121.607 72.2824 123.013 72.5146L123.255 72.5609C124.487 72.8246 126.027 73.6118 126.825 75.7585L126.931 76.0693C127.42 77.628 127.291 79.2566 126.899 80.8196C126.48 82.4845 125.755 84.1074 125.122 85.5262L124.834 86.1751C124.368 87.2304 123.827 88.28 123.256 89.379C122.495 90.8511 121.732 92.3283 121.173 93.7944C120.615 95.2597 120.271 96.6918 120.335 98.0702L120.352 98.2941C120.464 99.3914 121.002 100.167 121.806 100.503C122.559 100.816 123.527 100.739 124.529 100.236C124.953 100.022 125.48 100.115 125.794 100.491L126.484 101.307L126.558 101.405C126.89 101.907 126.74 102.622 126.167 102.904C125.069 103.444 123.904 103.726 122.774 103.726H121.991L122.041 103.675C121.566 103.622 121.101 103.519 120.654 103.359L120.366 103.247C118.387 102.422 117.126 100.611 116.951 98.4064L116.938 98.192C116.772 94.6468 118.529 91.2699 120.167 88.0996L120.575 87.3086C120.974 86.5302 121.346 85.7863 121.665 85.0587L121.666 85.0568L121.957 84.3984L122.383 83.4374C122.809 82.4581 123.225 81.4296 123.503 80.4156C123.875 79.0599 123.987 77.7804 123.59 76.7099C123.377 76.1329 123.111 75.8448 122.899 75.6957C122.74 75.5835 122.595 75.5379 122.488 75.5149L122.395 75.4978C121.866 75.4105 121.112 75.564 120.309 75.9278C119.615 76.2428 118.917 76.7004 118.346 77.2396L118.109 77.4749C114.927 80.8265 113.795 85.1645 112.573 89.8642C111.835 92.7124 111.061 95.6869 109.756 98.4077L109.488 98.9481C109.127 99.6512 108.549 100.618 107.751 101.464C107.003 102.257 106.044 102.963 104.874 103.228L104.636 103.276C103.706 103.435 102.305 103.364 100.855 102.178C99.9234 101.414 99.5772 100.296 99.5307 99.1536C99.4843 98.012 99.7332 96.8028 100.036 95.7855L100.145 95.4264C100.709 93.6349 101.476 91.9064 102.211 90.2499L102.581 89.4107L103.168 88.071C103.76 86.7003 104.354 85.2451 104.806 83.7768C105.409 81.8174 105.751 79.8631 105.517 78.0826C105.432 77.4326 105.248 77.0776 105.021 76.866C104.792 76.6517 104.472 76.5383 104.015 76.4727H104.014C103.182 76.3518 102.129 76.8637 100.869 78.2164C100.457 78.6628 100.075 79.1419 99.742 79.5992L99.7407 79.6005C99.4348 80.0159 98.8724 80.1393 98.4175 79.9005L98.4156 79.8999L97.343 79.3284C96.7829 79.0303 96.6158 78.3025 96.9948 77.7914L97.2777 77.4197C97.5701 77.0439 97.8922 76.6561 98.2399 76.2811L98.4264 76.0845C100.356 74.0848 102.422 73.1695 104.557 73.4756L104.884 73.5302C105.658 73.6778 106.503 73.9748 107.225 74.5482C108.059 75.2105 108.704 76.2233 108.902 77.7299L108.948 78.1428C109.141 80.2122 108.766 82.3401 108.154 84.3832C107.501 86.5624 106.571 88.6681 105.75 90.5245L105.375 91.3688C104.617 93.0797 103.845 94.8234 103.328 96.5625C103.025 97.5827 102.916 98.3961 102.927 98.9824C102.932 99.2758 102.968 99.504 103.018 99.6687C103.057 99.7958 103.101 99.8701 103.134 99.9104L103.162 99.9402L103.263 100.019C103.488 100.187 103.654 100.254 103.762 100.281C103.872 100.309 103.939 100.299 103.984 100.293C104.265 100.243 104.668 99.9898 105.118 99.5133C105.559 99.0478 106.006 98.411 106.383 97.6808C107.704 95.1082 108.449 92.2502 109.247 89.176L109.716 87.3898C110.84 83.2055 112.237 78.9526 115.501 75.5136L115.662 75.3481C116.488 74.5228 117.601 73.7327 118.83 73.1851ZM11.4185 73.1486C12.905 73.0149 14.9531 73.3546 16.9211 75.3909L17.1247 75.6078L17.1317 75.6155L17.138 75.6237L17.1698 75.663C17.7881 76.4015 18.2811 77.2867 18.6699 78.2675L18.831 78.6944V78.6957L18.8418 78.7166C18.8723 78.761 18.9382 78.7683 18.9756 78.7331L19.2814 78.4502C20.8246 77.0444 22.6552 75.7226 24.6457 74.9856C26.2529 74.3606 27.9716 74.3488 29.4588 74.9754L29.7316 75.0991C31.0721 75.7491 32.0317 76.8777 32.4464 78.3081C33.0046 80.1665 32.7816 81.9536 32.4312 83.5988L32.2751 84.2947C31.8116 86.2808 31.0527 88.2227 30.3246 90.0802C29.74 91.5735 29.1431 93.1006 28.7224 94.5965L28.7211 94.6015C28.2243 96.2652 27.9836 97.7453 27.9879 98.8971C27.99 99.4731 28.0537 99.9561 28.1699 100.334C28.2866 100.714 28.4495 100.967 28.6355 101.115L28.7103 101.168C28.8945 101.283 29.1564 101.346 29.4905 101.356C29.7729 101.363 30.0851 101.331 30.4039 101.274L30.7249 101.21C31.2773 101.086 31.847 101.348 32.1058 101.85L32.1534 101.953L32.3696 102.489L32.4166 102.625C32.6084 103.308 32.1825 104.024 31.4759 104.178L31.4746 104.179C30.7939 104.325 30.1556 104.399 29.5533 104.399H29.0275L29.0414 104.37C28.0037 104.291 27.1038 103.965 26.3672 103.383C25.0589 102.346 24.6012 100.714 24.5734 99.0005C24.5455 97.2831 24.9462 95.421 25.4215 93.8321C25.876 92.2147 26.5047 90.612 27.1062 89.0748L27.6434 87.6914C28.1642 86.3272 28.6249 85.0119 28.9336 83.675L29.0693 83.0711C29.3696 81.6759 29.5305 80.3646 29.1474 79.0819L29.1467 79.0781C28.9582 78.4181 28.547 77.949 27.9999 77.7188C27.4347 77.4822 26.7232 77.4899 25.9847 77.7772L25.979 77.7797C23.6448 78.6417 21.4221 80.7186 19.8751 82.4501C19.7716 82.5658 19.7195 82.731 19.7355 82.9017C20.1556 86.9695 19.5219 91.4416 18.3147 94.2133L18.1961 94.4766C17.008 97.0123 14.4128 97.8313 12.4492 97.3183C11.5055 97.0701 10.6205 96.5054 10.056 95.6393C9.48766 94.7671 9.26192 93.6169 9.58979 92.2406L9.65322 91.9939C9.99536 90.7526 10.6991 89.4248 11.5219 88.1322C12.4019 86.7498 13.4351 85.3821 14.3465 84.1754L14.949 83.3743C15.141 83.1171 15.3235 82.8698 15.4939 82.6347L15.4984 82.629L15.9861 81.9979C16.0901 81.8654 16.1335 81.7193 16.1212 81.5767L16.1124 81.5158C15.7911 79.8747 15.2439 78.4655 14.4511 77.4987C13.4821 76.4454 12.5727 76.0572 11.6411 76.1832C10.6845 76.3165 9.67952 76.9711 8.77978 77.9059C7.88591 78.8347 7.1319 80.0044 6.67198 81.0978L6.66754 81.1079L6.66309 81.1174L6.64724 81.1492C3.70555 87.57 4.3135 95.5372 4.86293 102.668L4.87879 102.865V102.867L4.88196 102.995C4.86535 103.633 4.36 104.165 3.70849 104.2L2.79065 104.253C2.11487 104.29 1.53104 103.783 1.48271 103.104L1.46685 102.877L1.36092 101.488C0.834018 94.4861 0.447085 86.6617 3.49473 80.0011C4.13754 78.4823 5.16441 76.9067 6.46265 75.6478C7.76253 74.3875 9.35265 73.4271 11.1185 73.1823L11.4185 73.1486ZM16.3401 86.9918C16.3376 86.9924 16.3342 86.994 16.3299 86.9968L16.3134 87.0127C15.5717 88.0122 14.8209 89.0638 14.205 90.0777C13.6251 91.0322 13.1763 91.9348 12.9618 92.7176L12.9224 92.8724C12.8142 93.3251 12.8331 93.6915 12.9294 93.9476C13.0217 94.1928 13.1845 94.3434 13.4089 94.403C13.8296 94.5122 14.578 94.3002 15.0448 93.3025L15.1749 93.0107C15.8121 91.5071 16.2602 89.3439 16.4067 87.0514L16.408 87.0247C16.4066 87.0203 16.405 87.0173 16.4035 87.0152C16.3987 87.0084 16.3893 86.9996 16.375 86.9943C16.3608 86.9891 16.348 86.9897 16.3401 86.9918Z" fill="#00929D" stroke="#00929D" stroke-width="0.5" stroke-miterlimit="10"/>
<path d="M36.2175 95.9343C36.2175 91.0692 39.6929 86.6964 44.8937 86.6964C49.1045 86.6964 52.0383 89.733 52.0383 93.9444C52.0383 98.8095 48.5953 103.182 43.3945 103.182C39.1837 103.182 36.2175 100.146 36.2175 95.9343ZM49.1328 94.0396C49.1328 91.2967 47.2214 89.3068 44.7644 89.3068C41.5437 89.3068 39.1514 92.3765 39.1514 95.8061C39.1514 98.582 41.0345 100.572 43.5198 100.572C46.7082 100.572 49.1328 97.5022 49.1328 94.0437V94.0396Z" fill="#00929D" stroke="#00929D" stroke-width="0.75"/>
<path d="M55.4487 97.3698L57.0126 89.7618H55.9619C55.1658 89.7618 54.7173 89.435 54.7173 88.8807C54.7173 88.5208 54.8749 87.7389 55.2265 87.412C55.4487 87.1845 55.7356 87.0852 56.3418 87.0852H57.5541L57.8087 85.811C58.1926 83.8832 58.8917 83.1344 60.2334 83.1344C60.9365 83.1344 61.478 83.4281 61.4457 83.5274L60.7102 87.0852H63.9633C64.7917 87.0852 65.2403 87.3789 65.2403 87.9002C65.2403 88.2932 65.0503 89.042 64.7311 89.4019C64.5088 89.6295 64.2219 89.7618 63.6157 89.7618H60.1404L58.5442 97.3036C58.0673 99.6534 58.7988 100.601 60.2657 100.601C61.1264 100.601 61.8902 100.113 62.2741 99.6865C62.3711 99.6203 62.8803 100.113 62.8803 100.861C62.8803 101.416 62.6903 101.842 62.2741 102.264C61.7326 102.818 60.7425 103.211 59.4373 103.211C56.2812 103.211 54.6526 101.188 55.4487 97.3656V97.3698Z" fill="#00929D" stroke="#00929D" stroke-width="0.75"/>
<path d="M68.1772 97.3698L69.7411 89.7618H68.6905C67.8944 89.7618 67.4458 89.435 67.4458 88.8807C67.4458 88.5208 67.6034 87.7389 67.955 87.412C68.1772 87.1845 68.4642 87.0852 69.0703 87.0852H70.2826L70.5372 85.811C70.9211 83.8832 71.6202 83.1344 72.9619 83.1344C73.665 83.1344 74.2065 83.4281 74.1742 83.5274L73.4387 87.0852H76.6918C77.5202 87.0852 77.9688 87.3789 77.9688 87.9002C77.9688 88.2932 77.7788 89.042 77.4596 89.4019C77.2373 89.6295 76.9504 89.7618 76.3443 89.7618H72.8689L71.2727 97.3036C70.7959 99.6534 71.5273 100.601 72.9942 100.601C73.8549 100.601 74.6187 100.113 75.0026 99.6865C75.0996 99.6203 75.6088 100.113 75.6088 100.861C75.6088 101.416 75.4188 101.842 75.0026 102.264C74.4611 102.818 73.471 103.211 72.1658 103.211C69.0097 103.211 67.3811 101.188 68.1813 97.3656L68.1772 97.3698Z" fill="#00929D" stroke="#00929D" stroke-width="0.75"/>
<path d="M79.153 99.2934L81.3837 88.6159C81.606 87.4741 82.0222 87.081 82.8183 87.081H83.1699C84.0629 87.081 84.7984 87.4079 84.5398 88.6159L82.3374 99.3265C81.9858 100.961 82.2727 101.581 83.7073 101.676C83.772 101.676 83.675 103.211 81.6989 103.211C79.3712 103.211 78.6358 101.709 79.149 99.2934H79.153ZM82.4061 82.3814C82.4061 81.2396 83.2022 80.2592 84.4468 80.2592C85.6915 80.2592 86.2977 81.041 86.2977 81.9553C86.2977 83.0971 85.4692 84.0445 84.2246 84.0445C82.9799 84.0445 82.4061 83.2957 82.4061 82.3814Z" fill="#00929D" stroke="#00929D" stroke-width="0.75"/>
<path d="M130.896 95.9633L132.428 88.4878C132.682 87.3129 133.098 86.953 133.894 86.953H134.246C135.107 86.953 135.875 87.2798 135.616 88.4878L134.084 95.9302C133.511 98.5407 134.533 100.336 136.893 100.336C138.869 100.336 140.178 99.3226 141.423 97.2334L143.241 88.4837C143.464 87.3088 143.88 86.9489 144.676 86.9489H145.028C145.921 86.9489 146.652 87.2757 146.398 88.4837L144.195 99.1943C143.844 100.828 144.13 101.416 145.44 101.544C145.504 101.544 145.407 103.079 143.528 103.079C142.571 103.079 141.742 102.785 141.265 102.003C141.011 101.577 140.914 100.928 140.914 100.175C139.734 102.07 137.915 103.178 135.749 103.178C131.793 103.178 130.007 100.241 130.9 95.9633H130.896Z" fill="#00929D" stroke="#00929D" stroke-width="0.75"/>
<path d="M150.606 97.3698L152.17 89.7618H151.12C150.324 89.7618 149.875 89.435 149.875 88.8807C149.875 88.5208 150.033 87.7389 150.384 87.412C150.606 87.1845 150.893 87.0852 151.5 87.0852H152.712L152.966 85.811C153.35 83.8832 154.049 83.1344 155.391 83.1344C156.094 83.1344 156.636 83.4281 156.603 83.5274L155.868 87.0852H159.121C159.949 87.0852 160.398 87.3789 160.398 87.9002C160.398 88.2932 160.208 89.042 159.889 89.4019C159.667 89.6295 159.38 89.7618 158.773 89.7618H155.298L153.702 97.3036C153.225 99.6534 153.956 100.601 155.423 100.601C156.284 100.601 157.048 100.113 157.432 99.6865C157.529 99.6203 158.038 100.113 158.038 100.861C158.038 101.416 157.848 101.842 157.432 102.264C156.89 102.818 155.9 103.211 154.595 103.211C151.439 103.211 149.81 101.188 150.61 97.3656L150.606 97.3698Z" fill="#00929D" stroke="#00929D" stroke-width="0.75"/>
<path d="M112.545 35.7309C109.926 45.7507 102.228 53.6316 92.4442 56.3083C90.7632 56.7675 89.1104 55.4767 89.1104 53.6978V35.0235C89.1104 33.53 90.2944 32.322 91.7492 32.322H109.991C111.732 32.322 112.989 34.014 112.541 35.735L112.545 35.7309Z" fill="#00929D"/>
<path d="M81.068 3.29289V53.1022C81.068 55.1955 79.108 56.7179 77.1441 56.1346C65.2754 52.6016 56.676 41.3573 56.676 28.1975C56.676 15.0378 65.2754 3.80588 77.1441 0.264617C79.108 -0.322835 81.068 1.19958 81.068 3.29703V3.29289Z" fill="#00929D"/>
<path d="M109.995 24.0812H91.7531C90.2943 24.0812 89.1143 22.869 89.1143 21.3797V2.70537C89.1143 0.922327 90.7671 -0.368412 92.4481 0.0949306C102.232 2.7757 109.93 10.6567 112.544 20.6682C112.993 22.3891 111.732 24.0812 109.995 24.0812Z" fill="#00929D"/>
<path d="M36.2175 95.9343C36.2175 91.0692 39.6929 86.6964 44.8937 86.6964C49.1045 86.6964 52.0383 89.733 52.0383 93.9444C52.0383 98.8095 48.5953 103.182 43.3945 103.182C39.1837 103.182 36.2175 100.146 36.2175 95.9343ZM49.1328 94.0396C49.1328 91.2967 47.2214 89.3068 44.7644 89.3068C41.5437 89.3068 39.1514 92.3765 39.1514 95.8061C39.1514 98.582 41.0345 100.572 43.5198 100.572C46.7082 100.572 49.1328 97.5022 49.1328 94.0437V94.0396Z" fill="#00929D" stroke="#00929D" stroke-width="0.75"/>
<path d="M55.4487 97.3698L57.0126 89.7618H55.9619C55.1658 89.7618 54.7173 89.435 54.7173 88.8807C54.7173 88.5208 54.8749 87.7389 55.2265 87.412C55.4487 87.1845 55.7356 87.0852 56.3418 87.0852H57.5541L57.8087 85.811C58.1926 83.8832 58.8917 83.1344 60.2334 83.1344C60.9365 83.1344 61.478 83.4281 61.4457 83.5274L60.7102 87.0852H63.9633C64.7917 87.0852 65.2403 87.3789 65.2403 87.9002C65.2403 88.2932 65.0503 89.042 64.7311 89.4019C64.5088 89.6295 64.2219 89.7618 63.6157 89.7618H60.1404L58.5442 97.3036C58.0673 99.6534 58.7988 100.601 60.2657 100.601C61.1264 100.601 61.8902 100.113 62.2741 99.6865C62.3711 99.6203 62.8803 100.113 62.8803 100.861C62.8803 101.416 62.6903 101.842 62.2741 102.264C61.7326 102.818 60.7425 103.211 59.4373 103.211C56.2812 103.211 54.6526 101.188 55.4487 97.3656V97.3698Z" fill="#00929D" stroke="#00929D" stroke-width="0.75"/>
<path d="M68.1772 97.3698L69.7411 89.7618H68.6905C67.8944 89.7618 67.4458 89.435 67.4458 88.8807C67.4458 88.5208 67.6034 87.7389 67.955 87.412C68.1772 87.1845 68.4642 87.0852 69.0703 87.0852H70.2826L70.5372 85.811C70.9211 83.8832 71.6202 83.1344 72.9619 83.1344C73.665 83.1344 74.2065 83.4281 74.1742 83.5274L73.4387 87.0852H76.6918C77.5202 87.0852 77.9688 87.3789 77.9688 87.9002C77.9688 88.2932 77.7788 89.042 77.4596 89.4019C77.2373 89.6295 76.9504 89.7618 76.3443 89.7618H72.8689L71.2727 97.3036C70.7959 99.6534 71.5273 100.601 72.9942 100.601C73.8549 100.601 74.6187 100.113 75.0026 99.6865C75.0996 99.6203 75.6088 100.113 75.6088 100.861C75.6088 101.416 75.4188 101.842 75.0026 102.264C74.4611 102.818 73.471 103.211 72.1658 103.211C69.0097 103.211 67.3811 101.188 68.1813 97.3656L68.1772 97.3698Z" fill="#00929D" stroke="#00929D" stroke-width="0.75"/>
<path d="M79.153 99.2934L81.3837 88.6159C81.606 87.4741 82.0222 87.081 82.8183 87.081H83.1699C84.0629 87.081 84.7984 87.4079 84.5398 88.6159L82.3374 99.3265C81.9858 100.961 82.2727 101.581 83.7073 101.676C83.772 101.676 83.675 103.211 81.6989 103.211C79.3712 103.211 78.6358 101.709 79.149 99.2934H79.153ZM82.4061 82.3814C82.4061 81.2396 83.2022 80.2592 84.4468 80.2592C85.6915 80.2592 86.2977 81.041 86.2977 81.9553C86.2977 83.0971 85.4692 84.0445 84.2246 84.0445C82.9799 84.0445 82.4061 83.2957 82.4061 82.3814Z" fill="#00929D" stroke="#00929D" stroke-width="0.75"/>
</svg>
